<svg width="33" height="34" viewBox="0 0 33 34" fill="none" xmlns="http://www.w3.org/2000/svg">
<path d="M32.9882 17.2221L32.7167 15.5753C32.7167 15.5751 32.7167 15.5751 32.7167 15.5751C32.6441 15.1366 32.2583 14.8124 31.814 14.8124C31.8061 14.8124 31.7982 14.8126 31.7907 14.8127L29.3995 14.8735C28.9448 14.8847 28.5729 15.2187 28.5154 15.6673L28.4735 15.9913L27.2472 11.283C26.9754 10.2393 26.0291 9.51036 24.9457 9.51036H22.0628C22.5938 8.58252 22.9013 7.51241 22.9013 6.37046C22.9013 2.85782 20.0296 0 16.4999 0C12.9702 0 10.0986 2.85782 10.0986 6.37046C10.0986 7.51241 10.4061 8.58252 10.937 9.51036H8.05442C6.97115 9.51036 6.02451 10.2393 5.75266 11.2829L4.52634 15.9913L4.48453 15.6673C4.48453 15.6672 4.48453 15.6672 4.48453 15.6672C4.42648 15.2185 4.05461 14.8847 3.60076 14.8735L1.20898 14.8127C0.763345 14.8044 0.357005 15.1289 0.28306 15.5753L0.011929 17.2225C-0.0289729 17.4709 0.0363987 17.7276 0.191254 17.9267C0.345932 18.1254 0.579019 18.2527 0.829789 18.2754L3.0593 18.4813L1.5478 21.835C1.28078 22.4276 1.13968 23.0877 1.13968 23.744V26.0134C1.02425 26.2047 0.953745 26.4259 0.953745 26.6647V28.9214C0.953745 29.1603 1.02425 29.3814 1.13968 29.5727V32.3619C1.13968 33.2652 1.87806 34 2.78576 34H4.87711C5.78481 34 6.52319 33.2652 6.52319 32.3619V30.1955H26.4767V32.3619C26.4767 33.2652 27.2151 34 28.1228 34H30.2143C31.122 34 31.8604 33.2652 31.8604 32.3619V29.5724C31.9757 29.3812 32.0462 29.1601 32.0462 28.9214V26.6647C32.0462 26.426 31.9757 26.2049 31.8604 26.0137V23.744C31.8604 23.0877 31.7193 22.4276 31.4517 21.8346L29.9405 18.4814L32.1694 18.2758C32.4209 18.2527 32.6542 18.1254 32.8088 17.9267C32.9635 17.7276 33.0289 17.4709 32.9882 17.2221ZM16.4999 1.09208C19.4244 1.09208 21.8039 3.46003 21.8039 6.37046C21.8039 9.28089 19.4244 11.6488 16.4999 11.6488C13.5753 11.6488 11.196 9.28089 11.196 6.37046C11.196 3.46003 13.5753 1.09208 16.4999 1.09208ZM6.81504 11.5569C6.96132 10.9949 7.47108 10.6024 8.05442 10.6024H11.7285C12.9017 11.911 14.6032 12.7409 16.4999 12.7409C18.3966 12.7409 20.0981 11.911 21.2713 10.6024H24.9457C25.529 10.6024 26.0388 10.9949 26.1849 11.5569L27.6739 17.274H5.32601L6.81504 11.5569ZM1.12664 17.2061L1.34026 15.9085L3.41608 15.9613L3.6063 17.435L1.12664 17.2061ZM2.23706 23.744C2.23706 23.2549 2.34077 22.7643 2.53383 22.3213L6.52873 23.5282C6.60624 23.5517 6.6584 23.6217 6.6584 23.7024V25.3906H2.23706V23.744ZM5.42581 32.3619C5.42581 32.663 5.17968 32.9079 4.87711 32.9079H2.78576C2.48319 32.9079 2.23706 32.663 2.23706 32.3619V30.1955H5.42581V32.3619ZM30.763 32.3619C30.763 32.663 30.5169 32.9079 30.2143 32.9079H28.1228C27.8202 32.9079 27.5741 32.663 27.5741 32.3619V30.1955H30.763V32.3619ZM30.9488 26.6647V28.9214C30.9488 29.0217 30.8666 29.1034 30.7659 29.1034H2.23403C2.13311 29.1034 2.05113 29.0217 2.05113 28.9214V26.6647C2.05113 26.5645 2.13311 26.4827 2.23403 26.4827H30.7659C30.8666 26.4827 30.9488 26.5645 30.9488 26.6647ZM30.763 23.744V25.3906H26.3417V23.7024C26.3417 23.6217 26.3938 23.5517 26.4714 23.5282L30.4661 22.3213C30.6593 22.7645 30.763 23.2549 30.763 23.744ZM30.0155 21.316L26.1527 22.4831C25.6094 22.6473 25.2443 23.1372 25.2443 23.7024V25.3906H7.75578V23.7024C7.75578 23.1372 7.3907 22.6473 6.84737 22.4831L2.98437 21.3161L4.26537 18.4738C4.29502 18.4084 4.36057 18.3661 4.43255 18.3661H28.5675C28.6393 18.3661 28.7047 18.4084 28.7344 18.4738L30.0155 21.316ZM29.3934 17.435L29.5838 15.9613L31.6593 15.9085L31.8733 17.2061L29.3934 17.435ZM23.2671 22.2435C23.2671 22.5449 23.0213 22.7895 22.7184 22.7895H10.2815C9.97842 22.7895 9.73283 22.5449 9.73283 22.2435C9.73283 21.942 9.97842 21.6974 10.2815 21.6974H22.7184C23.0213 21.6974 23.2671 21.942 23.2671 22.2435ZM22.5841 24.0899C22.5841 24.3913 22.3383 24.6359 22.0354 24.6359H10.9647C10.6616 24.6359 10.416 24.3913 10.416 24.0899C10.416 23.7884 10.6616 23.5438 10.9647 23.5438H22.0354C22.3383 23.5438 22.5841 23.7884 22.5841 24.0899ZM12.941 6.4252C12.7585 6.18453 12.8065 5.84219 13.0486 5.66053C13.2902 5.47888 13.6346 5.52669 13.8169 5.76754L15.5373 8.03648L19.1919 3.47282C19.3809 3.23713 19.7259 3.19874 19.9628 3.38626C20.2 3.57414 20.2389 3.91772 20.0499 4.15342L15.9546 9.26791C15.8504 9.39784 15.6925 9.47357 15.5255 9.47357C15.523 9.47357 15.5207 9.47357 15.5182 9.47357C15.3487 9.47125 15.1898 9.39109 15.0876 9.25636L12.941 6.4252Z" fill="black"/>
</svg>
