<svg width="79" height="35" viewBox="0 0 79 35" fill="none" xmlns="http://www.w3.org/2000/svg">
<path fill-rule="evenodd" clip-rule="evenodd" d="M13.1933 0.942169C11.1065 1.46672 9.07925 2.67463 9.07925 3.39375C9.07925 3.52888 8.76006 4.04518 8.36994 4.54138C7.97981 5.03759 7.66062 5.59847 7.66062 5.78782C7.66062 6.49181 8.83411 7.73081 9.50087 7.73081C10.6463 7.73081 11.0653 8.02639 11.0653 8.83413C11.0653 9.44648 11.2444 9.66389 11.9423 9.90003C12.7643 10.178 12.8823 10.1287 13.8161 9.1198C15.6413 7.14791 17.9091 6.76124 20.0754 8.05253C21.1166 8.67341 21.0514 9.10384 19.9151 9.11292C17.3383 9.13329 14.2343 12.3439 15.1317 14.0607C15.3141 14.4094 15.6637 14.8161 15.9088 14.9645C16.5733 15.3666 18.3163 14.4608 19.0284 13.3435C19.3555 12.8297 19.8419 12.4094 20.1086 12.4094C20.3755 12.4094 22.3069 12.9667 24.4005 13.6479C28.4981 14.981 30.3568 15.186 31.7961 14.4641C32.4898 14.116 32.849 14.0978 33.8389 14.3601C34.666 14.5789 36.5034 14.6205 39.7356 14.4928C45.2025 14.277 45.1945 14.274 46.9539 17.0836C48.2321 19.1246 50.1331 20.7692 51.7063 21.1953C52.4701 21.4019 54.4812 21.4914 57.1709 21.4383C61.0744 21.3607 61.5207 21.4028 62.5617 21.9438C63.1859 22.2683 63.952 22.8127 64.2641 23.1537C65.2841 24.268 67.0287 25.3443 67.8149 25.3443C68.2385 25.3443 68.9339 25.0785 69.3601 24.7532C69.9659 24.2908 70.1015 24.0008 69.982 23.4214C69.8305 22.6869 69.8427 22.6806 71.471 22.6657C73.3161 22.6489 74.5608 22.1387 75.4588 21.0315C76.1449 20.1855 76.1264 19.3478 75.412 18.9135C75.0417 18.6884 74.6204 18.7632 73.631 19.2294C71.0276 20.4563 70.5606 20.3019 59.9716 14.7115C48.9698 8.90376 35.0238 3.53108 25.6773 1.50002C21.8563 0.669435 15.422 0.382114 13.1933 0.942169ZM22.4127 1.69515C24.8516 2.07879 26.3429 2.75003 27.9735 4.19737L29.3189 5.39151L28.5403 4.09279L27.7615 2.79407L29.1583 3.19643C32.2189 4.07793 39.0694 6.42631 43.4576 8.09794C50.6498 10.8377 54.8829 12.7292 62.5322 16.6207C70.3892 20.6179 71.53 20.9569 73.7933 19.967C74.6686 19.5842 74.9989 19.547 75.2616 19.8019C75.6773 20.205 75.3351 20.8097 74.2442 21.5998C73.6651 22.019 73.0344 22.15 71.5706 22.1552C69.2273 22.1632 67.9908 21.5918 65.9664 19.5655C64.1929 17.7903 63.5545 17.4639 61.4265 17.244C56.9581 16.7828 57.3173 16.9204 55.3968 14.9331L53.6224 13.0974L54.633 14.9507C55.9997 17.4571 56.3229 17.6381 59.4331 17.6401C63.0903 17.6423 63.8098 17.9021 65.5474 19.8475C66.3552 20.7519 67.546 21.837 68.1937 22.2589C69.7539 23.2756 69.7244 23.7888 68.0944 23.982L66.8176 24.1331L67.8107 24.4386C68.6619 24.7006 68.7024 24.7477 68.0944 24.7678C67.2523 24.7953 66.5379 24.3599 63.9514 22.2424C62.8846 21.3692 61.5324 20.5292 60.947 20.3762C60.3614 20.2235 58.1231 20.1189 55.973 20.1439C51.6314 20.1949 50.78 19.9918 49.0087 18.483C48.4432 18.0017 47.4575 16.8045 46.8186 15.8226C45.6669 14.0541 43.5921 11.859 43.0717 11.859C42.923 11.859 43.0785 12.1994 43.4173 12.6158L44.033 13.3726L42.5159 13.5518C39.9992 13.849 35.1038 13.7761 34.0756 13.426C33.2789 13.1547 33.0462 12.8836 32.7401 11.87C32.5364 11.1949 32.4109 10.6024 32.4615 10.5531C32.5122 10.5041 33.1132 10.5889 33.797 10.7419C34.4807 10.8946 35.934 11.0119 37.0263 11.002L39.0124 10.9841L36.8359 10.6021C34.5624 10.203 31.7527 9.14347 30.834 8.33875C30.4388 7.99281 30.5301 8.31398 31.179 9.55381C33.3904 13.7786 31.2704 14.7614 24.1349 12.8192C22.1945 12.2911 20.3128 11.859 19.9536 11.859C19.5003 11.859 19.0815 12.1956 18.5841 12.9598C18.19 13.5653 17.7508 14.0607 17.6078 14.0607C17.1876 14.0607 16.4578 13.2342 16.4363 12.7339C16.4201 12.3634 16.3699 12.3811 16.1824 12.8222C16.0314 13.1772 16.091 13.5925 16.3506 13.9919C16.7776 14.6491 16.5169 14.8351 15.9454 14.2808C14.9941 13.3581 16.432 10.8096 18.3409 10.036C19.7227 9.47592 22.8845 9.55986 24.8261 10.2077C26.9608 10.9202 27.3915 10.8889 25.9425 10.1265C24.0995 9.15668 23.5598 8.69267 22.9694 7.56954L22.4144 6.51355V7.52633V8.53938L20.4993 7.58605C19.4458 7.06177 18.3821 6.63217 18.135 6.63134C17.8881 6.63051 17.2755 6.13458 16.7739 5.52912C16.2723 4.92365 15.7525 4.42827 15.6186 4.42827C15.4847 4.42827 15.4438 4.92393 15.5275 5.52967C15.6731 6.58208 15.607 6.69932 14.0411 8.15849C13.0384 9.09311 12.2422 9.62619 11.9897 9.53234C11.6694 9.4129 11.7735 9.16163 12.4562 8.40755C13.3164 7.45697 13.4608 7.05517 13.3414 5.94194C13.2554 5.13914 12.4616 4.39167 11.7945 4.48497C11.4543 4.53258 10.9422 5.04777 10.5518 5.73553C9.86234 6.95031 8.93512 7.30286 8.60742 6.47474C8.27631 5.6381 8.99811 4.74559 10.2726 4.41644C12.2604 3.90317 13.2183 2.777 11.6674 2.777C11.1368 2.777 10.7005 2.99387 10.4216 3.39623C10.1855 3.73694 9.89412 3.92326 9.7741 3.8107C9.36922 3.43146 10.5802 2.49932 12.0147 2.08622C13.6583 1.61286 15.7247 1.52066 15.0375 1.95137C14.7047 2.15998 14.7782 2.21915 15.3754 2.22245C15.7953 2.22465 16.2178 2.10274 16.3143 1.95137C16.4108 1.8 16.6417 1.68029 16.8275 1.68524C17.5615 1.70533 15.7732 2.777 15.006 2.777C13.4597 2.777 14.1963 3.41632 16.4561 4.03527C16.8463 4.14205 17.8356 4.64431 18.655 5.15125C19.4744 5.65792 20.1446 5.97854 20.1446 5.8635C20.1446 5.38793 18.4034 3.65383 17.6027 3.33211C17.1283 3.14138 16.7399 2.89534 16.7399 2.78554C16.7399 2.60692 18.152 1.93981 19.2934 1.57901C19.9633 1.3671 20.4428 1.38498 22.4127 1.69515ZM11.3491 3.44879C11.3491 3.51567 11.2214 3.64667 11.0653 3.74024C10.9093 3.83382 10.7816 3.77905 10.7816 3.61888C10.7816 3.4587 10.9093 3.32743 11.0653 3.32743C11.2214 3.32743 11.3491 3.38192 11.3491 3.44879ZM12.4306 6.41227C12.4791 6.81986 12.3781 7.40854 12.2059 7.72063C11.7613 8.52617 10.7816 7.99611 10.7816 6.95059C10.7816 5.48426 12.2621 5.00099 12.4306 6.41227ZM7.66062 30.1427C7.66062 33.2206 6.76575 33.8759 2.56262 33.8759C0.473823 33.8759 0 33.9521 0 34.2887C0 34.6308 0.537662 34.7015 3.13717 34.7015C8.87809 34.7015 9.93043 34.0776 9.93043 30.6738V28.6469H8.79553H7.66062V30.1427ZM13.996 31.6054C11.5752 34.3605 11.4444 34.57 12.0961 34.6523C12.5796 34.7134 12.9734 34.5218 13.3701 34.033C13.9287 33.3442 14.0328 33.3255 17.3042 33.3255C20.5841 33.3255 20.6774 33.3425 21.1947 34.0311C21.6529 34.6413 21.9017 34.7249 23.0375 34.6503L24.3503 34.5639L21.7522 31.6054C19.1606 28.654 19.151 28.6469 17.8748 28.6469C16.5986 28.6469 16.5889 28.6543 13.996 31.6054ZM27.6103 28.9502C25.717 29.4816 24.8837 31.8974 26.0836 33.3767C26.9149 34.4021 28.4504 34.7015 32.8743 34.7015H36.8845V33.3255V31.9494H35.7496C34.6416 31.9494 34.6147 31.9723 34.6147 32.9127V33.8759L32.2739 33.8718C29.694 33.8674 28.7432 33.5454 28.1179 32.4649C27.7768 31.8754 27.7661 31.6046 28.0574 30.9221C28.5755 29.7092 29.4171 29.4725 33.2094 29.4725C36.0347 29.4725 36.6007 29.4037 36.6007 29.0597C36.6007 28.711 35.9737 28.6507 32.5576 28.6716C30.3338 28.6854 28.1077 28.8106 27.6103 28.9502ZM39.438 30.8114C39.438 32.534 39.5501 33.1141 39.9862 33.6519C40.7292 34.5683 42.3099 34.9767 45.1125 34.9767C47.9152 34.9767 49.4958 34.5683 50.2389 33.6519C50.675 33.1141 50.7871 32.534 50.7871 30.8114V28.6469H49.6522H48.5173V30.5945C48.5173 32.3801 48.4483 32.6091 47.6879 33.3467C46.9508 34.0614 46.664 34.1511 45.1125 34.1511C43.5611 34.1511 43.2743 34.0614 42.5372 33.3467C41.7768 32.6091 41.7078 32.3801 41.7078 30.5945V28.6469H40.5729H39.438V30.8114ZM54.5689 31.6054C52.1481 34.3605 52.0173 34.57 52.669 34.6523C53.1525 34.7134 53.5463 34.5218 53.943 34.033C54.5016 33.3442 54.6057 33.3255 57.8771 33.3255C61.157 33.3255 61.2503 33.3425 61.7676 34.0311C62.2258 34.6413 62.4746 34.7249 63.6104 34.6503L64.9232 34.5639L62.3251 31.6054C59.7335 28.654 59.7239 28.6469 58.4477 28.6469C57.1715 28.6469 57.1618 28.6543 54.5689 31.6054ZM67.5269 31.6742V34.7015H68.6619H69.7968V33.6007V32.4998L71.2863 32.5007C72.5495 32.5015 73.0344 32.6685 74.4782 33.6007C75.8912 34.513 76.4201 34.6999 77.5904 34.7007L79 34.7015L77.3243 33.6846C75.7493 32.7291 75.6909 32.657 76.3565 32.4842C77.8438 32.0983 78.3088 31.6891 78.3043 30.7701C78.2949 28.8737 77.6305 28.6469 72.0853 28.6469H67.5269V31.6742ZM75.742 29.8702C75.9292 30.089 76.0404 30.5533 75.9897 30.9022C75.9003 31.514 75.7879 31.5393 72.8468 31.6148L69.7968 31.6929V30.5827V29.4725H72.5994C74.6967 29.4725 75.4875 29.5724 75.742 29.8702ZM18.5305 31.0195C19.1062 31.6434 19.5771 32.2315 19.5771 32.3267C19.5771 32.422 18.4842 32.4998 17.1484 32.4998H14.72L15.9222 31.1172C16.5833 30.3565 17.2049 29.7684 17.3039 29.8099C17.4029 29.8515 17.9548 30.3958 18.5305 31.0195ZM59.1034 31.0195C59.6791 31.6434 60.1501 32.2315 60.1501 32.3267C60.1501 32.422 59.0571 32.4998 57.7214 32.4998H55.2929L56.4951 31.1172C57.1562 30.3565 57.7778 29.7684 57.8768 29.8099C57.9759 29.8515 58.5277 30.3958 59.1034 31.0195Z" fill="#FFF6ED"/>
</svg>
