<svg width="33" height="43" viewBox="0 0 33 43" fill="none" xmlns="http://www.w3.org/2000/svg">
<path d="M31.8709 0H1.12908C0.506542 0 0 0.506542 0 1.12908V40.8727C0 41.4954 0.506542 42.0018 1.12908 42.0018H31.8709C32.4937 42.0018 33 41.4954 33 40.8727V1.12908C33 0.506542 32.4937 0 31.8709 0ZM31.6451 40.6469H1.3549V1.3549H31.6451V40.6469V40.6469ZM10.9267 24.4772H8.86283C8.48861 24.4772 8.18539 24.7804 8.18539 25.1547V27.2188C8.18539 27.5928 8.48861 27.8962 8.86283 27.8962H10.9267C11.3009 27.8962 11.6042 27.5928 11.6042 27.2188V25.1547C11.6042 24.7804 11.3009 24.4772 10.9267 24.4772ZM10.2493 26.5413H9.54028V25.8321H10.2493V26.5413ZM24.8144 26.1867C24.8144 26.5607 24.5112 26.8642 24.1369 26.8642H13.1721C12.7979 26.8642 12.4946 26.5607 12.4946 26.1867C12.4946 25.8127 12.7979 25.5093 13.1721 25.5093H24.1369C24.5112 25.5093 24.8144 25.8127 24.8144 26.1867ZM10.9267 28.8956H8.86283C8.48861 28.8956 8.18539 29.1991 8.18539 29.5731V31.6372C8.18539 32.0112 8.48861 32.3146 8.86283 32.3146H10.9267C11.3009 32.3146 11.6042 32.0112 11.6042 31.6372V29.5731C11.6042 29.1991 11.3009 28.8956 10.9267 28.8956ZM10.2493 30.9597H9.54028V30.2505H10.2493V30.9597ZM24.8144 30.6051C24.8144 30.9791 24.5112 31.2826 24.1369 31.2826H13.1721C12.7979 31.2826 12.4946 30.9791 12.4946 30.6051C12.4946 30.2311 12.7979 29.9277 13.1721 29.9277H24.1369C24.5112 29.9277 24.8144 30.2311 24.8144 30.6051ZM10.9267 33.314H8.86283C8.48861 33.314 8.18539 33.6175 8.18539 33.9915V36.0551C8.18539 36.4291 8.48861 36.7326 8.86283 36.7326H10.9267C11.3009 36.7326 11.6042 36.4291 11.6042 36.0551V33.9915C11.6042 33.6175 11.3009 33.314 10.9267 33.314ZM10.2493 35.3777H9.54028V34.6689H10.2493V35.3777ZM24.8144 35.0235C24.8144 35.3975 24.5112 35.701 24.1369 35.701H13.1721C12.7979 35.701 12.4946 35.3975 12.4946 35.0235C12.4946 34.6495 12.7979 34.3461 13.1721 34.3461H24.1369C24.5112 34.3461 24.8144 34.6495 24.8144 35.0235ZM6.42936 11.8933L7.15557 11.9701L6.45185 13.5388C6.25934 13.9679 6.15745 14.446 6.15745 14.9215V16.3118C6.0822 16.463 6.03595 16.6309 6.03595 16.8109V18.342C6.03595 18.522 6.0822 18.69 6.15745 18.8412V20.5722C6.15745 21.3407 6.78264 21.9659 7.55094 21.9659H8.91554C9.68384 21.9659 10.309 21.3407 10.309 20.5722V19.4711H22.6908V20.5722C22.6908 21.3407 23.3159 21.9659 24.0842 21.9659H25.4491C26.2174 21.9659 26.8425 21.3407 26.8425 20.5722V18.8407C26.9177 18.6897 26.9638 18.5219 26.9638 18.342V16.8109C26.9638 16.6311 26.9177 16.4633 26.8425 16.3122V14.9215C26.8425 14.446 26.7407 13.9679 26.5481 13.539L25.8445 11.9701L26.5711 11.8933C26.8697 11.8615 27.1466 11.7074 27.3308 11.4703C27.5151 11.2335 27.5963 10.9272 27.5535 10.6301L27.4205 9.70479C27.3403 9.1451 26.8604 8.73978 26.2882 8.75191L25.0784 8.78719C24.8359 8.7942 24.6135 8.88378 24.4323 9.02486L23.822 6.67083C23.6084 5.84563 22.8639 5.26919 22.0111 5.26919H10.9889C10.1364 5.26919 9.39165 5.84541 9.17774 6.67061L8.56753 9.02489C8.38639 8.88378 8.16405 8.7942 7.92186 8.78719L6.71141 8.75191C6.12879 8.73758 5.65951 9.14532 5.57924 9.70457L5.44627 10.6299C5.40348 10.9269 5.48464 11.2332 5.66899 11.4701C5.85313 11.7071 6.13033 11.8615 6.42936 11.8933ZM8.95413 20.5722C8.95413 20.5936 8.93671 20.611 8.91554 20.611H7.55094C7.52977 20.611 7.51235 20.5936 7.51235 20.5722V19.4711H8.95413V20.5722ZM25.4877 20.5722C25.4877 20.5936 25.4704 20.611 25.4491 20.611H24.0842C24.0631 20.611 24.0456 20.5936 24.0456 20.5722V19.4711H25.4877V20.5722ZM25.6089 18.1162H7.39084V17.0368H25.6089V18.1162ZM25.3289 10.1355L26.1104 10.1125L26.1763 10.5726L25.2689 10.6685L25.3289 10.1355ZM25.4067 14.3851C25.4545 14.5599 25.4877 14.7392 25.4877 14.9215V15.6819H23.2414V15.0426L25.4067 14.3851ZM10.4894 7.01066C10.5483 6.78308 10.7538 6.62408 10.9889 6.62408H22.0111C22.2462 6.62408 22.4515 6.78286 22.5104 7.01066L23.3786 10.3597H9.62132L10.4894 7.01066ZM8.75522 11.7146H24.2448L24.8793 13.1293L22.706 13.7891C22.2157 13.938 21.8865 14.3821 21.8865 14.8944V15.6819H11.1135V14.8944C11.1135 14.3821 10.7843 13.9382 10.2943 13.7893L8.12058 13.1293L8.75522 11.7146ZM9.7586 15.0426V15.6819H7.51235V14.9215C7.51235 14.7392 7.54548 14.5599 7.59328 14.3851L9.7586 15.0426ZM6.88937 10.1125L7.67091 10.1355L7.73089 10.6685L6.82343 10.5726L6.88937 10.1125ZM11.7647 13.9375C11.7647 13.5633 12.0679 13.2601 12.4421 13.2601H20.5579C20.9321 13.2601 21.2353 13.5633 21.2353 13.9375C21.2353 14.3117 20.9321 14.615 20.5579 14.615H12.4421C12.0679 14.615 11.7647 14.3117 11.7647 13.9375Z" fill="black"/>
</svg>
